<mxfile host="app.diagrams.net" modified="2021-12-05T01:23:13.887Z" agent="5.0 (Macintosh; Intel Mac OS X 10_15_7) AppleWebKit/605.1.15 (KHTML, like Gecko) Version/14.1.2 Safari/605.1.15" etag="uZYL0KGRpwjMM338apI3" version="15.9.1" type="github">
  <diagram id="R2lEEEUBdFMjLlhIrx00" name="Page-1">
    <mxGraphModel dx="1186" dy="795" grid="1" gridSize="10" guides="1" tooltips="1" connect="1" arrows="1" fold="1" page="1" pageScale="1.2" pageWidth="850" pageHeight="1100" math="0" shadow="0" extFonts="Permanent Marker^https://fonts.googleapis.com/css?family=Permanent+Marker">
      <root>
        <mxCell id="0" />
        <mxCell id="1" parent="0" />
        <mxCell id="mENr9t2x39c0aTWe1Q5v-33" style="rounded=0;orthogonalLoop=1;jettySize=auto;html=1;exitX=0.75;exitY=1;exitDx=0;exitDy=0;fontSize=17;endArrow=oval;endFill=0;endSize=9;" parent="1" source="uESx4mzOo0HxvKaBSaLz-14" edge="1">
          <mxGeometry relative="1" as="geometry">
            <mxPoint x="747.63" y="306" as="targetPoint" />
          </mxGeometry>
        </mxCell>
        <mxCell id="mENr9t2x39c0aTWe1Q5v-34" style="edgeStyle=none;rounded=0;orthogonalLoop=1;jettySize=auto;html=1;exitX=0.75;exitY=0;exitDx=0;exitDy=0;fontSize=17;endArrow=oval;endFill=0;endSize=9;" parent="1" source="uESx4mzOo0HxvKaBSaLz-14" edge="1">
          <mxGeometry relative="1" as="geometry">
            <mxPoint x="737.63" y="186" as="targetPoint" />
          </mxGeometry>
        </mxCell>
        <mxCell id="uESx4mzOo0HxvKaBSaLz-14" value="" style="swimlane;startSize=0;fillColor=#000000;" parent="1" vertex="1">
          <mxGeometry x="626.88" y="212" width="120" height="70" as="geometry" />
        </mxCell>
        <mxCell id="uESx4mzOo0HxvKaBSaLz-15" value="&lt;font style=&quot;font-size: 22px&quot;&gt;People&lt;br&gt;&lt;/font&gt;" style="text;html=1;strokeColor=none;fillColor=none;align=center;verticalAlign=middle;whiteSpace=wrap;rounded=0;" parent="uESx4mzOo0HxvKaBSaLz-14" vertex="1">
          <mxGeometry x="30" y="20" width="60" height="30" as="geometry" />
        </mxCell>
        <mxCell id="uESx4mzOo0HxvKaBSaLz-22" value="" style="ellipse;whiteSpace=wrap;html=1;aspect=fixed;fontSize=22;fillColor=#000000;" parent="1" vertex="1">
          <mxGeometry x="796.88" y="202" width="10" height="10" as="geometry" />
        </mxCell>
        <mxCell id="uESx4mzOo0HxvKaBSaLz-23" value="" style="endArrow=none;html=1;rounded=0;fontSize=22;" parent="1" target="uESx4mzOo0HxvKaBSaLz-22" edge="1">
          <mxGeometry width="50" height="50" relative="1" as="geometry">
            <mxPoint x="746.88" y="232" as="sourcePoint" />
            <mxPoint x="796.88" y="212" as="targetPoint" />
          </mxGeometry>
        </mxCell>
        <mxCell id="mENr9t2x39c0aTWe1Q5v-32" value="" style="edgeStyle=elbowEdgeStyle;rounded=0;orthogonalLoop=1;jettySize=auto;html=1;fontSize=17;endArrow=none;endFill=0;endSize=8;" parent="1" target="uESx4mzOo0HxvKaBSaLz-28" edge="1">
          <mxGeometry relative="1" as="geometry">
            <mxPoint x="794.1005882352941" y="188" as="sourcePoint" />
          </mxGeometry>
        </mxCell>
        <mxCell id="uESx4mzOo0HxvKaBSaLz-27" value="&lt;font style=&quot;font-size: 12px&quot;&gt;name&lt;/font&gt;" style="text;html=1;strokeColor=none;fillColor=none;align=center;verticalAlign=middle;whiteSpace=wrap;rounded=0;fontSize=22;" parent="1" vertex="1">
          <mxGeometry x="738.13" y="156" width="60" height="30" as="geometry" />
        </mxCell>
        <mxCell id="uESx4mzOo0HxvKaBSaLz-28" value="&lt;font style=&quot;font-size: 12px&quot;&gt;id&lt;br&gt;&lt;/font&gt;" style="text;html=1;strokeColor=none;fillColor=none;align=center;verticalAlign=middle;whiteSpace=wrap;rounded=0;fontSize=22;" parent="1" vertex="1">
          <mxGeometry x="790.88" y="188" width="60" height="30" as="geometry" />
        </mxCell>
        <mxCell id="uESx4mzOo0HxvKaBSaLz-31" value="&lt;font style=&quot;font-size: 12px&quot;&gt;city_of_birth&lt;br&gt;&lt;/font&gt;" style="text;html=1;strokeColor=none;fillColor=none;align=center;verticalAlign=middle;whiteSpace=wrap;rounded=0;fontSize=22;" parent="1" vertex="1">
          <mxGeometry x="715.76" y="306" width="60" height="30" as="geometry" />
        </mxCell>
        <mxCell id="uESx4mzOo0HxvKaBSaLz-48" style="edgeStyle=none;rounded=0;orthogonalLoop=1;jettySize=auto;html=1;exitX=0;exitY=0.25;exitDx=0;exitDy=0;fontSize=12;startArrow=none;startFill=0;endArrow=oval;endFill=0;entryX=1;entryY=0.75;entryDx=0;entryDy=0;endSize=8;" parent="1" source="uESx4mzOo0HxvKaBSaLz-38" target="uESx4mzOo0HxvKaBSaLz-49" edge="1">
          <mxGeometry relative="1" as="geometry">
            <mxPoint x="368.25" y="536" as="targetPoint" />
          </mxGeometry>
        </mxCell>
        <mxCell id="uESx4mzOo0HxvKaBSaLz-215" style="edgeStyle=none;rounded=0;orthogonalLoop=1;jettySize=auto;html=1;exitX=0;exitY=0.75;exitDx=0;exitDy=0;fontSize=15;startArrow=none;startFill=0;endArrow=oval;endFill=0;endSize=8;elbow=vertical;" parent="1" source="uESx4mzOo0HxvKaBSaLz-38" edge="1">
          <mxGeometry relative="1" as="geometry">
            <mxPoint x="357.25" y="572" as="targetPoint" />
          </mxGeometry>
        </mxCell>
        <mxCell id="uESx4mzOo0HxvKaBSaLz-218" style="edgeStyle=none;rounded=0;orthogonalLoop=1;jettySize=auto;html=1;exitX=0.5;exitY=1;exitDx=0;exitDy=0;fontSize=12;startArrow=none;startFill=0;endArrow=none;endFill=0;endSize=8;elbow=vertical;entryX=0.5;entryY=0;entryDx=0;entryDy=0;" parent="1" source="uESx4mzOo0HxvKaBSaLz-38" target="uESx4mzOo0HxvKaBSaLz-219" edge="1">
          <mxGeometry relative="1" as="geometry">
            <mxPoint x="428.1071428571431" y="868" as="targetPoint" />
          </mxGeometry>
        </mxCell>
        <mxCell id="uESx4mzOo0HxvKaBSaLz-38" value="" style="swimlane;startSize=0;fillColor=#000000;" parent="1" vertex="1">
          <mxGeometry x="383.75" y="521" width="90" height="50" as="geometry" />
        </mxCell>
        <mxCell id="uESx4mzOo0HxvKaBSaLz-39" value="&lt;font style=&quot;font-size: 22px&quot;&gt;Player&lt;br&gt;&lt;/font&gt;" style="text;html=1;strokeColor=none;fillColor=none;align=center;verticalAlign=middle;whiteSpace=wrap;rounded=0;" parent="uESx4mzOo0HxvKaBSaLz-38" vertex="1">
          <mxGeometry x="16" y="9" width="60" height="30" as="geometry" />
        </mxCell>
        <mxCell id="uESx4mzOo0HxvKaBSaLz-45" style="rounded=0;orthogonalLoop=1;jettySize=auto;html=1;exitX=0.25;exitY=1;exitDx=0;exitDy=0;fontSize=12;endArrow=oval;endFill=0;startArrow=none;startFill=0;" parent="1" source="uESx4mzOo0HxvKaBSaLz-40" target="uESx4mzOo0HxvKaBSaLz-52" edge="1">
          <mxGeometry relative="1" as="geometry">
            <mxPoint x="648.25" y="606" as="targetPoint" />
          </mxGeometry>
        </mxCell>
        <mxCell id="uESx4mzOo0HxvKaBSaLz-101" style="edgeStyle=none;rounded=0;orthogonalLoop=1;jettySize=auto;html=1;exitX=0.5;exitY=1;exitDx=0;exitDy=0;entryX=0.5;entryY=0;entryDx=0;entryDy=0;fontSize=15;startArrow=none;startFill=0;endArrow=none;endFill=0;endSize=8;" parent="1" source="uESx4mzOo0HxvKaBSaLz-40" target="uESx4mzOo0HxvKaBSaLz-97" edge="1">
          <mxGeometry relative="1" as="geometry" />
        </mxCell>
        <mxCell id="uESx4mzOo0HxvKaBSaLz-40" value="" style="swimlane;startSize=0;fillColor=#000000;" parent="1" vertex="1">
          <mxGeometry x="644.25" y="521" width="90" height="50" as="geometry" />
        </mxCell>
        <mxCell id="uESx4mzOo0HxvKaBSaLz-41" value="&lt;font style=&quot;font-size: 22px&quot;&gt;Coach&lt;br&gt;&lt;/font&gt;" style="text;html=1;strokeColor=none;fillColor=none;align=center;verticalAlign=middle;whiteSpace=wrap;rounded=0;" parent="uESx4mzOo0HxvKaBSaLz-40" vertex="1">
          <mxGeometry x="16" y="9" width="60" height="30" as="geometry" />
        </mxCell>
        <mxCell id="RR57jl_ZyxM-nM3Gpm_I-10" value="" style="swimlane;startSize=0;fillColor=#000000;" vertex="1" parent="uESx4mzOo0HxvKaBSaLz-40">
          <mxGeometry x="4.009999999999991" y="4" width="82" height="42" as="geometry" />
        </mxCell>
        <mxCell id="uESx4mzOo0HxvKaBSaLz-46" style="edgeStyle=none;rounded=0;orthogonalLoop=1;jettySize=auto;html=1;exitX=1;exitY=0.25;exitDx=0;exitDy=0;fontSize=12;startArrow=none;startFill=0;endArrow=oval;endFill=0;" parent="1" source="uESx4mzOo0HxvKaBSaLz-43" edge="1">
          <mxGeometry relative="1" as="geometry">
            <mxPoint x="958.25" y="526" as="targetPoint" />
          </mxGeometry>
        </mxCell>
        <mxCell id="uESx4mzOo0HxvKaBSaLz-47" style="edgeStyle=none;rounded=0;orthogonalLoop=1;jettySize=auto;html=1;exitX=1;exitY=0.75;exitDx=0;exitDy=0;fontSize=12;startArrow=none;startFill=0;endArrow=oval;endFill=0;" parent="1" source="uESx4mzOo0HxvKaBSaLz-43" edge="1">
          <mxGeometry relative="1" as="geometry">
            <mxPoint x="958.25" y="566" as="targetPoint" />
          </mxGeometry>
        </mxCell>
        <mxCell id="uESx4mzOo0HxvKaBSaLz-105" value="" style="edgeStyle=none;rounded=0;orthogonalLoop=1;jettySize=auto;html=1;fontSize=15;startArrow=none;startFill=0;endArrow=none;endFill=0;endSize=8;" parent="1" source="uESx4mzOo0HxvKaBSaLz-43" target="uESx4mzOo0HxvKaBSaLz-104" edge="1">
          <mxGeometry relative="1" as="geometry" />
        </mxCell>
        <mxCell id="uESx4mzOo0HxvKaBSaLz-43" value="" style="swimlane;startSize=0;fillColor=#000000;" parent="1" vertex="1">
          <mxGeometry x="828.25" y="521" width="90" height="50" as="geometry" />
        </mxCell>
        <mxCell id="uESx4mzOo0HxvKaBSaLz-44" value="&lt;font style=&quot;font-size: 22px&quot;&gt;Referee&lt;br&gt;&lt;/font&gt;" style="text;html=1;strokeColor=none;fillColor=none;align=center;verticalAlign=middle;whiteSpace=wrap;rounded=0;" parent="uESx4mzOo0HxvKaBSaLz-43" vertex="1">
          <mxGeometry x="16" y="9" width="60" height="30" as="geometry" />
        </mxCell>
        <mxCell id="RR57jl_ZyxM-nM3Gpm_I-12" value="" style="swimlane;startSize=0;fillColor=#000000;" vertex="1" parent="uESx4mzOo0HxvKaBSaLz-43">
          <mxGeometry x="4.1299999999999955" y="4" width="82" height="42" as="geometry" />
        </mxCell>
        <mxCell id="uESx4mzOo0HxvKaBSaLz-49" value="surname" style="text;html=1;strokeColor=none;fillColor=none;align=center;verticalAlign=middle;whiteSpace=wrap;rounded=0;fontSize=12;" parent="1" vertex="1">
          <mxGeometry x="297.25" y="502" width="61" height="30" as="geometry" />
        </mxCell>
        <mxCell id="uESx4mzOo0HxvKaBSaLz-50" value="surname" style="text;html=1;strokeColor=none;fillColor=none;align=center;verticalAlign=middle;whiteSpace=wrap;rounded=0;fontSize=12;" parent="1" vertex="1">
          <mxGeometry x="960.25" y="509" width="60" height="30" as="geometry" />
        </mxCell>
        <mxCell id="uESx4mzOo0HxvKaBSaLz-51" value="city" style="text;html=1;strokeColor=none;fillColor=none;align=center;verticalAlign=middle;whiteSpace=wrap;rounded=0;fontSize=12;" parent="1" vertex="1">
          <mxGeometry x="946.25" y="550" width="60" height="30" as="geometry" />
        </mxCell>
        <mxCell id="uESx4mzOo0HxvKaBSaLz-52" value="salary" style="text;html=1;strokeColor=none;fillColor=none;align=center;verticalAlign=middle;whiteSpace=wrap;rounded=0;fontSize=12;" parent="1" vertex="1">
          <mxGeometry x="613.25" y="596" width="60" height="30" as="geometry" />
        </mxCell>
        <mxCell id="uESx4mzOo0HxvKaBSaLz-56" style="edgeStyle=none;rounded=0;orthogonalLoop=1;jettySize=auto;html=1;exitX=1;exitY=0.25;exitDx=0;exitDy=0;fontSize=12;startArrow=none;startFill=0;endArrow=oval;endFill=0;endSize=8;" parent="1" source="uESx4mzOo0HxvKaBSaLz-54" edge="1">
          <mxGeometry relative="1" as="geometry">
            <mxPoint x="795.26" y="958.25" as="targetPoint" />
          </mxGeometry>
        </mxCell>
        <mxCell id="uESx4mzOo0HxvKaBSaLz-58" style="edgeStyle=none;rounded=0;orthogonalLoop=1;jettySize=auto;html=1;exitX=1;exitY=0.75;exitDx=0;exitDy=0;fontSize=12;startArrow=none;startFill=0;endArrow=oval;endFill=0;endSize=8;" parent="1" source="uESx4mzOo0HxvKaBSaLz-54" edge="1">
          <mxGeometry relative="1" as="geometry">
            <mxPoint x="795.26" y="1008.25" as="targetPoint" />
          </mxGeometry>
        </mxCell>
        <mxCell id="uESx4mzOo0HxvKaBSaLz-59" style="edgeStyle=none;rounded=0;orthogonalLoop=1;jettySize=auto;html=1;exitX=1;exitY=1;exitDx=0;exitDy=0;fontSize=12;startArrow=none;startFill=0;endArrow=oval;endFill=0;" parent="1" source="uESx4mzOo0HxvKaBSaLz-54" edge="1">
          <mxGeometry relative="1" as="geometry">
            <mxPoint x="750.0186206896551" y="1018.5258620689656" as="targetPoint" />
          </mxGeometry>
        </mxCell>
        <mxCell id="uESx4mzOo0HxvKaBSaLz-60" style="edgeStyle=none;rounded=0;orthogonalLoop=1;jettySize=auto;html=1;exitX=0.75;exitY=1;exitDx=0;exitDy=0;fontSize=12;startArrow=none;startFill=0;endArrow=oval;endFill=0;endSize=8;" parent="1" source="uESx4mzOo0HxvKaBSaLz-54" edge="1">
          <mxGeometry relative="1" as="geometry">
            <mxPoint x="745.26" y="1058.25" as="targetPoint" />
          </mxGeometry>
        </mxCell>
        <mxCell id="uESx4mzOo0HxvKaBSaLz-61" style="edgeStyle=none;rounded=0;orthogonalLoop=1;jettySize=auto;html=1;exitX=0.75;exitY=0;exitDx=0;exitDy=0;fontSize=12;startArrow=none;startFill=0;endArrow=oval;endFill=1;endSize=8;" parent="1" source="uESx4mzOo0HxvKaBSaLz-54" edge="1">
          <mxGeometry relative="1" as="geometry">
            <mxPoint x="755.26" y="908.25" as="targetPoint" />
          </mxGeometry>
        </mxCell>
        <mxCell id="uESx4mzOo0HxvKaBSaLz-64" style="edgeStyle=none;rounded=0;orthogonalLoop=1;jettySize=auto;html=1;exitX=0.25;exitY=1;exitDx=0;exitDy=0;fontSize=12;startArrow=none;startFill=0;endArrow=oval;endFill=0;endSize=8;" parent="1" source="uESx4mzOo0HxvKaBSaLz-54" edge="1">
          <mxGeometry relative="1" as="geometry">
            <mxPoint x="645.26" y="1058.25" as="targetPoint" />
          </mxGeometry>
        </mxCell>
        <mxCell id="uESx4mzOo0HxvKaBSaLz-65" style="edgeStyle=none;rounded=0;orthogonalLoop=1;jettySize=auto;html=1;exitX=0;exitY=1;exitDx=0;exitDy=0;fontSize=12;startArrow=none;startFill=0;endArrow=oval;endFill=0;endSize=8;" parent="1" source="uESx4mzOo0HxvKaBSaLz-54" edge="1">
          <mxGeometry relative="1" as="geometry">
            <mxPoint x="605.26" y="1038.25" as="targetPoint" />
          </mxGeometry>
        </mxCell>
        <mxCell id="uESx4mzOo0HxvKaBSaLz-66" style="edgeStyle=none;rounded=0;orthogonalLoop=1;jettySize=auto;html=1;exitX=0;exitY=0.75;exitDx=0;exitDy=0;fontSize=12;startArrow=none;startFill=0;endArrow=oval;endFill=0;endSize=10;" parent="1" source="uESx4mzOo0HxvKaBSaLz-54" edge="1">
          <mxGeometry relative="1" as="geometry">
            <mxPoint x="595.26" y="1008.25" as="targetPoint" />
          </mxGeometry>
        </mxCell>
        <mxCell id="uESx4mzOo0HxvKaBSaLz-187" style="edgeStyle=none;rounded=0;orthogonalLoop=1;jettySize=auto;html=1;exitX=0.25;exitY=0;exitDx=0;exitDy=0;fontSize=15;startArrow=none;startFill=0;endArrow=oval;endFill=0;endSize=8;elbow=vertical;" parent="1" source="uESx4mzOo0HxvKaBSaLz-54" edge="1">
          <mxGeometry relative="1" as="geometry">
            <mxPoint x="633.26" y="916.75" as="targetPoint" />
          </mxGeometry>
        </mxCell>
        <mxCell id="uESx4mzOo0HxvKaBSaLz-217" style="edgeStyle=elbowEdgeStyle;rounded=0;orthogonalLoop=1;jettySize=auto;html=1;exitX=0;exitY=0.5;exitDx=0;exitDy=0;fontSize=12;startArrow=none;startFill=0;endArrow=none;endFill=0;endSize=8;entryX=0.5;entryY=1;entryDx=0;entryDy=0;" parent="1" source="uESx4mzOo0HxvKaBSaLz-54" target="uESx4mzOo0HxvKaBSaLz-219" edge="1">
          <mxGeometry relative="1" as="geometry">
            <mxPoint x="417.25" y="869.1428571428573" as="targetPoint" />
            <Array as="points">
              <mxPoint x="428.25" y="850" />
            </Array>
          </mxGeometry>
        </mxCell>
        <mxCell id="mENr9t2x39c0aTWe1Q5v-63" style="rounded=0;orthogonalLoop=1;jettySize=auto;html=1;exitX=0;exitY=0.25;exitDx=0;exitDy=0;fontSize=12;endArrow=oval;endFill=0;endSize=9;" parent="1" source="uESx4mzOo0HxvKaBSaLz-54" edge="1">
          <mxGeometry relative="1" as="geometry">
            <mxPoint x="586.01" y="946.75" as="targetPoint" />
          </mxGeometry>
        </mxCell>
        <mxCell id="mENr9t2x39c0aTWe1Q5v-67" style="edgeStyle=none;rounded=0;orthogonalLoop=1;jettySize=auto;html=1;exitX=1;exitY=1;exitDx=0;exitDy=0;entryX=0.892;entryY=0.007;entryDx=0;entryDy=0;entryPerimeter=0;fontSize=12;endArrow=oval;endFill=0;endSize=9;" parent="1" source="uESx4mzOo0HxvKaBSaLz-54" target="mENr9t2x39c0aTWe1Q5v-64" edge="1">
          <mxGeometry relative="1" as="geometry" />
        </mxCell>
        <mxCell id="uESx4mzOo0HxvKaBSaLz-54" value="" style="swimlane;startSize=0;fillColor=#000000;" parent="1" vertex="1">
          <mxGeometry x="630.26" y="948.25" width="120" height="70" as="geometry" />
        </mxCell>
        <mxCell id="uESx4mzOo0HxvKaBSaLz-55" value="&lt;font style=&quot;font-size: 22px&quot;&gt;Match&lt;br&gt;&lt;/font&gt;" style="text;html=1;strokeColor=none;fillColor=none;align=center;verticalAlign=middle;whiteSpace=wrap;rounded=0;" parent="uESx4mzOo0HxvKaBSaLz-54" vertex="1">
          <mxGeometry x="30" y="20" width="60" height="30" as="geometry" />
        </mxCell>
        <mxCell id="RR57jl_ZyxM-nM3Gpm_I-1" style="edgeStyle=none;rounded=0;orthogonalLoop=1;jettySize=auto;html=1;exitX=0.25;exitY=0;exitDx=0;exitDy=0;fontSize=12;endArrow=oval;endFill=0;endSize=9;" edge="1" parent="uESx4mzOo0HxvKaBSaLz-54" source="uESx4mzOo0HxvKaBSaLz-55" target="uESx4mzOo0HxvKaBSaLz-55">
          <mxGeometry relative="1" as="geometry" />
        </mxCell>
        <mxCell id="uESx4mzOo0HxvKaBSaLz-62" value="id" style="text;html=1;strokeColor=none;fillColor=none;align=center;verticalAlign=middle;whiteSpace=wrap;rounded=0;fontSize=12;" parent="1" vertex="1">
          <mxGeometry x="741.26" y="888.25" width="60" height="30" as="geometry" />
        </mxCell>
        <mxCell id="uESx4mzOo0HxvKaBSaLz-67" value="day" style="text;html=1;strokeColor=none;fillColor=none;align=center;verticalAlign=middle;whiteSpace=wrap;rounded=0;fontSize=12;" parent="1" vertex="1">
          <mxGeometry x="534.26" y="995.25" width="60" height="30" as="geometry" />
        </mxCell>
        <mxCell id="uESx4mzOo0HxvKaBSaLz-68" value="month" style="text;html=1;strokeColor=none;fillColor=none;align=center;verticalAlign=middle;whiteSpace=wrap;rounded=0;fontSize=12;" parent="1" vertex="1">
          <mxGeometry x="565.26" y="1038.25" width="60" height="30" as="geometry" />
        </mxCell>
        <mxCell id="uESx4mzOo0HxvKaBSaLz-69" value="year" style="text;html=1;strokeColor=none;fillColor=none;align=center;verticalAlign=middle;whiteSpace=wrap;rounded=0;fontSize=12;" parent="1" vertex="1">
          <mxGeometry x="615.26" y="1061.25" width="60" height="30" as="geometry" />
        </mxCell>
        <mxCell id="uESx4mzOo0HxvKaBSaLz-70" value="series" style="text;html=1;strokeColor=none;fillColor=none;align=center;verticalAlign=middle;whiteSpace=wrap;rounded=0;fontSize=12;" parent="1" vertex="1">
          <mxGeometry x="777.89" y="1016.75" width="60" height="30" as="geometry" />
        </mxCell>
        <mxCell id="uESx4mzOo0HxvKaBSaLz-71" value="serie_nbr" style="text;html=1;strokeColor=none;fillColor=none;align=center;verticalAlign=middle;whiteSpace=wrap;rounded=0;fontSize=12;" parent="1" vertex="1">
          <mxGeometry x="800.26" y="996.25" width="60" height="30" as="geometry" />
        </mxCell>
        <mxCell id="uESx4mzOo0HxvKaBSaLz-72" style="edgeStyle=none;rounded=0;orthogonalLoop=1;jettySize=auto;html=1;exitX=0;exitY=0.25;exitDx=0;exitDy=0;fontSize=12;startArrow=none;startFill=0;endArrow=oval;endFill=0;endSize=8;" parent="1" source="uESx4mzOo0HxvKaBSaLz-80" edge="1">
          <mxGeometry relative="1" as="geometry">
            <mxPoint x="143.25" y="669" as="targetPoint" />
          </mxGeometry>
        </mxCell>
        <mxCell id="uESx4mzOo0HxvKaBSaLz-76" style="edgeStyle=none;rounded=0;orthogonalLoop=1;jettySize=auto;html=1;exitX=0.75;exitY=0;exitDx=0;exitDy=0;fontSize=12;startArrow=none;startFill=0;endArrow=oval;endFill=1;endSize=8;" parent="1" edge="1">
          <mxGeometry relative="1" as="geometry">
            <mxPoint x="193.25" y="628" as="targetPoint" />
            <mxPoint x="223.25" y="667.5" as="sourcePoint" />
          </mxGeometry>
        </mxCell>
        <mxCell id="uESx4mzOo0HxvKaBSaLz-98" value="" style="edgeStyle=elbowEdgeStyle;rounded=0;orthogonalLoop=1;jettySize=auto;html=1;fontSize=15;startArrow=none;startFill=0;endArrow=none;endFill=0;endSize=8;exitX=1;exitY=0.5;exitDx=0;exitDy=0;elbow=vertical;" parent="1" source="uESx4mzOo0HxvKaBSaLz-80" target="uESx4mzOo0HxvKaBSaLz-97" edge="1">
          <mxGeometry relative="1" as="geometry">
            <Array as="points">
              <mxPoint x="479.25" y="708" />
            </Array>
          </mxGeometry>
        </mxCell>
        <mxCell id="uESx4mzOo0HxvKaBSaLz-116" style="rounded=0;orthogonalLoop=1;jettySize=auto;html=1;exitX=0;exitY=0.5;exitDx=0;exitDy=0;entryX=1;entryY=0.5;entryDx=0;entryDy=0;fontSize=15;startArrow=none;startFill=0;endArrow=none;endFill=0;endSize=8;" parent="1" source="uESx4mzOo0HxvKaBSaLz-80" target="uESx4mzOo0HxvKaBSaLz-114" edge="1">
          <mxGeometry relative="1" as="geometry" />
        </mxCell>
        <mxCell id="uESx4mzOo0HxvKaBSaLz-171" style="edgeStyle=none;rounded=0;orthogonalLoop=1;jettySize=auto;html=1;exitX=0.5;exitY=0;exitDx=0;exitDy=0;entryX=0.5;entryY=1;entryDx=0;entryDy=0;fontSize=15;startArrow=none;startFill=0;endArrow=none;endFill=0;endSize=10;" parent="1" source="uESx4mzOo0HxvKaBSaLz-80" target="uESx4mzOo0HxvKaBSaLz-168" edge="1">
          <mxGeometry relative="1" as="geometry" />
        </mxCell>
        <mxCell id="uESx4mzOo0HxvKaBSaLz-80" value="" style="swimlane;startSize=0;fillColor=#000000;" parent="1" vertex="1">
          <mxGeometry x="203.25" y="667.5" width="143" height="70" as="geometry" />
        </mxCell>
        <mxCell id="uESx4mzOo0HxvKaBSaLz-81" value="&lt;font style=&quot;font-size: 22px&quot;&gt;Team&lt;br&gt;&lt;/font&gt;" style="text;html=1;strokeColor=none;fillColor=none;align=center;verticalAlign=middle;whiteSpace=wrap;rounded=0;" parent="uESx4mzOo0HxvKaBSaLz-80" vertex="1">
          <mxGeometry x="38" y="20" width="60" height="30" as="geometry" />
        </mxCell>
        <mxCell id="uESx4mzOo0HxvKaBSaLz-86" value="team_id" style="text;html=1;strokeColor=none;fillColor=none;align=center;verticalAlign=middle;whiteSpace=wrap;rounded=0;fontSize=12;" parent="1" vertex="1">
          <mxGeometry x="127.25" y="604" width="60" height="30" as="geometry" />
        </mxCell>
        <mxCell id="uESx4mzOo0HxvKaBSaLz-87" value="city" style="text;html=1;strokeColor=none;fillColor=none;align=center;verticalAlign=middle;whiteSpace=wrap;rounded=0;fontSize=12;" parent="1" vertex="1">
          <mxGeometry x="92.25" y="652" width="63" height="30" as="geometry" />
        </mxCell>
        <mxCell id="uESx4mzOo0HxvKaBSaLz-100" style="edgeStyle=none;rounded=0;orthogonalLoop=1;jettySize=auto;html=1;exitX=0.5;exitY=1;exitDx=0;exitDy=0;entryX=0.5;entryY=0;entryDx=0;entryDy=0;fontSize=15;startArrow=none;startFill=0;endArrow=none;endFill=0;endSize=8;" parent="1" source="uESx4mzOo0HxvKaBSaLz-97" target="uESx4mzOo0HxvKaBSaLz-54" edge="1">
          <mxGeometry relative="1" as="geometry" />
        </mxCell>
        <mxCell id="uESx4mzOo0HxvKaBSaLz-197" style="edgeStyle=none;rounded=0;orthogonalLoop=1;jettySize=auto;html=1;exitX=1;exitY=0;exitDx=0;exitDy=0;fontSize=15;startArrow=none;startFill=0;endArrow=oval;endFill=0;endSize=8;elbow=vertical;" parent="1" source="uESx4mzOo0HxvKaBSaLz-97" edge="1">
          <mxGeometry relative="1" as="geometry">
            <mxPoint x="752.26" y="667.5" as="targetPoint" />
          </mxGeometry>
        </mxCell>
        <mxCell id="uESx4mzOo0HxvKaBSaLz-97" value="" style="rhombus;whiteSpace=wrap;html=1;fontStyle=1;fillColor=none;startSize=0;" parent="1" vertex="1">
          <mxGeometry x="631.01" y="667.5" width="118.5" height="80" as="geometry" />
        </mxCell>
        <mxCell id="uESx4mzOo0HxvKaBSaLz-99" value="Participations" style="text;html=1;strokeColor=none;fillColor=none;align=center;verticalAlign=middle;whiteSpace=wrap;rounded=0;fontSize=15;" parent="1" vertex="1">
          <mxGeometry x="664.26" y="692.5" width="60" height="30" as="geometry" />
        </mxCell>
        <mxCell id="uESx4mzOo0HxvKaBSaLz-107" style="edgeStyle=elbowEdgeStyle;rounded=0;orthogonalLoop=1;jettySize=auto;html=1;exitX=0.5;exitY=1;exitDx=0;exitDy=0;fontSize=15;startArrow=none;startFill=0;endArrow=none;endFill=0;endSize=8;entryX=1;entryY=0.5;entryDx=0;entryDy=0;" parent="1" source="uESx4mzOo0HxvKaBSaLz-104" target="uESx4mzOo0HxvKaBSaLz-54" edge="1">
          <mxGeometry relative="1" as="geometry">
            <mxPoint x="873.25" y="914" as="targetPoint" />
            <Array as="points">
              <mxPoint x="873.25" y="814" />
            </Array>
          </mxGeometry>
        </mxCell>
        <mxCell id="uESx4mzOo0HxvKaBSaLz-104" value="" style="rhombus;whiteSpace=wrap;html=1;fontStyle=1;fillColor=none;startSize=0;" parent="1" vertex="1">
          <mxGeometry x="816.25" y="662.5" width="114" height="80" as="geometry" />
        </mxCell>
        <mxCell id="uESx4mzOo0HxvKaBSaLz-106" value="Refereeing" style="text;html=1;strokeColor=none;fillColor=none;align=center;verticalAlign=middle;whiteSpace=wrap;rounded=0;fontSize=15;" parent="1" vertex="1">
          <mxGeometry x="843.25" y="687.5" width="60" height="30" as="geometry" />
        </mxCell>
        <mxCell id="uESx4mzOo0HxvKaBSaLz-115" value="" style="edgeStyle=elbowEdgeStyle;rounded=0;orthogonalLoop=1;jettySize=auto;html=1;fontSize=15;startArrow=none;startFill=0;endArrow=none;endFill=0;endSize=8;exitX=0.5;exitY=0;exitDx=0;exitDy=0;" parent="1" source="uESx4mzOo0HxvKaBSaLz-141" target="uESx4mzOo0HxvKaBSaLz-114" edge="1">
          <mxGeometry relative="1" as="geometry" />
        </mxCell>
        <mxCell id="uESx4mzOo0HxvKaBSaLz-120" style="edgeStyle=none;rounded=0;orthogonalLoop=1;jettySize=auto;html=1;exitX=0.5;exitY=1;exitDx=0;exitDy=0;fontSize=15;startArrow=none;startFill=0;endArrow=oval;endFill=0;endSize=8;" parent="1" source="uESx4mzOo0HxvKaBSaLz-110" edge="1">
          <mxGeometry relative="1" as="geometry">
            <mxPoint x="80" y="960" as="targetPoint" />
          </mxGeometry>
        </mxCell>
        <mxCell id="uESx4mzOo0HxvKaBSaLz-135" style="rounded=0;orthogonalLoop=1;jettySize=auto;elbow=vertical;html=1;exitX=0.75;exitY=0;exitDx=0;exitDy=0;fontSize=15;startArrow=none;startFill=0;endArrow=oval;endFill=0;endSize=8;entryX=0;entryY=0.5;entryDx=0;entryDy=0;" parent="1" source="uESx4mzOo0HxvKaBSaLz-110" edge="1">
          <mxGeometry relative="1" as="geometry">
            <mxPoint x="120.25" y="810" as="targetPoint" />
            <mxPoint x="107.49999999999977" y="737.5" as="sourcePoint" />
          </mxGeometry>
        </mxCell>
        <mxCell id="uESx4mzOo0HxvKaBSaLz-110" value="" style="swimlane;startSize=0;fillColor=#000000;" parent="1" vertex="1">
          <mxGeometry x="12" y="857.5" width="91" height="54.5" as="geometry" />
        </mxCell>
        <mxCell id="uESx4mzOo0HxvKaBSaLz-111" value="&lt;font style=&quot;font-size: 22px&quot;&gt;Points&lt;br&gt;&lt;/font&gt;" style="text;html=1;strokeColor=none;fillColor=none;align=center;verticalAlign=middle;whiteSpace=wrap;rounded=0;" parent="uESx4mzOo0HxvKaBSaLz-110" vertex="1">
          <mxGeometry x="17.5" y="13" width="60" height="30" as="geometry" />
        </mxCell>
        <mxCell id="uESx4mzOo0HxvKaBSaLz-114" value="" style="rhombus;whiteSpace=wrap;html=1;fontStyle=1;fillColor=none;startSize=0;" parent="1" vertex="1">
          <mxGeometry x="1" y="662.5" width="111.5" height="80" as="geometry" />
        </mxCell>
        <mxCell id="uESx4mzOo0HxvKaBSaLz-117" value="Rankings" style="text;html=1;strokeColor=none;fillColor=none;align=center;verticalAlign=middle;whiteSpace=wrap;rounded=0;fontSize=15;" parent="1" vertex="1">
          <mxGeometry x="26.75" y="687.5" width="60" height="30" as="geometry" />
        </mxCell>
        <mxCell id="uESx4mzOo0HxvKaBSaLz-121" value="points" style="text;html=1;strokeColor=none;fillColor=none;align=center;verticalAlign=middle;whiteSpace=wrap;rounded=0;fontSize=15;" parent="1" vertex="1">
          <mxGeometry x="57.75" y="974" width="60" height="30" as="geometry" />
        </mxCell>
        <mxCell id="uESx4mzOo0HxvKaBSaLz-163" style="edgeStyle=none;rounded=0;orthogonalLoop=1;jettySize=auto;html=1;exitX=0.75;exitY=0;exitDx=0;exitDy=0;fontSize=15;startArrow=none;startFill=0;endArrow=oval;endFill=0;endSize=10;" parent="1" source="uESx4mzOo0HxvKaBSaLz-125" target="uESx4mzOo0HxvKaBSaLz-164" edge="1">
          <mxGeometry relative="1" as="geometry">
            <mxPoint x="151.00000000000045" y="80" as="targetPoint" />
          </mxGeometry>
        </mxCell>
        <mxCell id="uESx4mzOo0HxvKaBSaLz-165" style="edgeStyle=none;rounded=0;orthogonalLoop=1;jettySize=auto;html=1;exitX=0.5;exitY=0;exitDx=0;exitDy=0;fontSize=15;startArrow=none;startFill=0;endArrow=oval;endFill=1;endSize=10;" parent="1" source="uESx4mzOo0HxvKaBSaLz-125" target="uESx4mzOo0HxvKaBSaLz-166" edge="1">
          <mxGeometry relative="1" as="geometry">
            <mxPoint x="91.88888888888869" y="90" as="targetPoint" />
          </mxGeometry>
        </mxCell>
        <mxCell id="uESx4mzOo0HxvKaBSaLz-172" style="edgeStyle=none;rounded=0;orthogonalLoop=1;jettySize=auto;html=1;exitX=1;exitY=0.5;exitDx=0;exitDy=0;entryX=0;entryY=0.5;entryDx=0;entryDy=0;fontSize=15;startArrow=none;startFill=0;endArrow=none;endFill=0;endSize=10;" parent="1" source="uESx4mzOo0HxvKaBSaLz-125" target="uESx4mzOo0HxvKaBSaLz-168" edge="1">
          <mxGeometry relative="1" as="geometry" />
        </mxCell>
        <mxCell id="mENr9t2x39c0aTWe1Q5v-37" style="rounded=0;orthogonalLoop=1;jettySize=auto;html=1;exitX=1;exitY=0.25;exitDx=0;exitDy=0;fontSize=17;endArrow=oval;endFill=0;endSize=9;" parent="1" source="uESx4mzOo0HxvKaBSaLz-125" edge="1">
          <mxGeometry relative="1" as="geometry">
            <mxPoint x="187" y="124" as="targetPoint" />
          </mxGeometry>
        </mxCell>
        <mxCell id="uESx4mzOo0HxvKaBSaLz-125" value="" style="swimlane;startSize=0;fillColor=#000000;" parent="1" vertex="1">
          <mxGeometry x="30.25" y="120" width="124" height="60" as="geometry" />
        </mxCell>
        <mxCell id="uESx4mzOo0HxvKaBSaLz-126" value="&lt;font style=&quot;font-size: 22px&quot;&gt;Contract&lt;br&gt;&lt;/font&gt;" style="text;html=1;strokeColor=none;fillColor=none;align=center;verticalAlign=middle;whiteSpace=wrap;rounded=0;" parent="uESx4mzOo0HxvKaBSaLz-125" vertex="1">
          <mxGeometry x="33" y="16" width="60" height="30" as="geometry" />
        </mxCell>
        <mxCell id="uESx4mzOo0HxvKaBSaLz-136" value="day_nbr" style="text;html=1;strokeColor=none;fillColor=none;align=center;verticalAlign=middle;whiteSpace=wrap;rounded=0;fontSize=15;" parent="1" vertex="1">
          <mxGeometry x="117.25" y="793" width="80" height="30" as="geometry" />
        </mxCell>
        <mxCell id="uESx4mzOo0HxvKaBSaLz-137" value="tournament_day" style="text;html=1;strokeColor=none;fillColor=none;align=center;verticalAlign=middle;whiteSpace=wrap;rounded=0;fontSize=12;" parent="1" vertex="1">
          <mxGeometry x="789.26" y="926.75" width="60" height="30" as="geometry" />
        </mxCell>
        <mxCell id="uESx4mzOo0HxvKaBSaLz-139" value="" style="endArrow=oval;html=1;rounded=0;fontSize=15;endSize=10;elbow=vertical;endFill=1;entryX=0.25;entryY=0;entryDx=0;entryDy=0;startArrow=none;" parent="1" source="uESx4mzOo0HxvKaBSaLz-143" target="uESx4mzOo0HxvKaBSaLz-212" edge="1">
          <mxGeometry relative="1" as="geometry">
            <mxPoint x="150.25" y="828" as="sourcePoint" />
            <mxPoint x="-49.75" y="828" as="targetPoint" />
          </mxGeometry>
        </mxCell>
        <mxCell id="uESx4mzOo0HxvKaBSaLz-141" value="" style="ellipse;whiteSpace=wrap;html=1;aspect=fixed;fontSize=15;fillColor=#000000;" parent="1" vertex="1">
          <mxGeometry x="53.75" y="825" width="6" height="6" as="geometry" />
        </mxCell>
        <mxCell id="uESx4mzOo0HxvKaBSaLz-142" value="" style="edgeStyle=elbowEdgeStyle;rounded=0;orthogonalLoop=1;jettySize=auto;html=1;fontSize=15;startArrow=none;startFill=0;endArrow=none;endFill=0;endSize=8;exitX=0.5;exitY=0;exitDx=0;exitDy=0;" parent="1" source="uESx4mzOo0HxvKaBSaLz-110" target="uESx4mzOo0HxvKaBSaLz-141" edge="1">
          <mxGeometry relative="1" as="geometry">
            <mxPoint x="56.75" y="857.5" as="sourcePoint" />
            <mxPoint x="56.44047619047615" y="742.2779201366645" as="targetPoint" />
          </mxGeometry>
        </mxCell>
        <mxCell id="uESx4mzOo0HxvKaBSaLz-169" value="" style="rounded=0;orthogonalLoop=1;jettySize=auto;html=1;fontSize=15;startArrow=none;startFill=0;endArrow=none;endFill=0;endSize=10;entryX=1;entryY=0.5;entryDx=0;entryDy=0;exitX=0.5;exitY=0;exitDx=0;exitDy=0;edgeStyle=elbowEdgeStyle;" parent="1" source="uESx4mzOo0HxvKaBSaLz-14" target="uESx4mzOo0HxvKaBSaLz-168" edge="1">
          <mxGeometry relative="1" as="geometry">
            <mxPoint x="498.25" y="296" as="sourcePoint" />
            <Array as="points">
              <mxPoint x="687" y="180" />
            </Array>
          </mxGeometry>
        </mxCell>
        <mxCell id="uESx4mzOo0HxvKaBSaLz-162" value="&lt;font style=&quot;font-size: 15px&quot;&gt;end_date&lt;/font&gt;" style="text;html=1;strokeColor=none;fillColor=none;align=center;verticalAlign=middle;whiteSpace=wrap;rounded=0;fontSize=18;" parent="1" vertex="1">
          <mxGeometry x="182.25" y="92" width="60" height="30" as="geometry" />
        </mxCell>
        <mxCell id="uESx4mzOo0HxvKaBSaLz-164" value="start_date" style="text;html=1;strokeColor=none;fillColor=none;align=center;verticalAlign=middle;whiteSpace=wrap;rounded=0;fontSize=15;" parent="1" vertex="1">
          <mxGeometry x="131" y="60" width="60" height="34" as="geometry" />
        </mxCell>
        <mxCell id="uESx4mzOo0HxvKaBSaLz-166" value="id" style="text;html=1;strokeColor=none;fillColor=none;align=center;verticalAlign=middle;whiteSpace=wrap;rounded=0;fontSize=15;" parent="1" vertex="1">
          <mxGeometry x="62.25" y="50" width="60" height="42" as="geometry" />
        </mxCell>
        <mxCell id="uESx4mzOo0HxvKaBSaLz-168" value="" style="rhombus;whiteSpace=wrap;html=1;fontSize=15;fillColor=none;" parent="1" vertex="1">
          <mxGeometry x="207.25" y="111" width="140" height="80" as="geometry" />
        </mxCell>
        <mxCell id="uESx4mzOo0HxvKaBSaLz-173" value="&lt;font style=&quot;font-size: 17px&quot;&gt;Contractors&lt;/font&gt;" style="text;html=1;strokeColor=none;fillColor=none;align=center;verticalAlign=middle;whiteSpace=wrap;rounded=0;fontSize=16;" parent="1" vertex="1">
          <mxGeometry x="247.25" y="138" width="60" height="29" as="geometry" />
        </mxCell>
        <mxCell id="uESx4mzOo0HxvKaBSaLz-189" value="city" style="text;html=1;strokeColor=none;fillColor=none;align=center;verticalAlign=middle;whiteSpace=wrap;rounded=0;fontSize=15;" parent="1" vertex="1">
          <mxGeometry x="592.26" y="886.75" width="60" height="30" as="geometry" />
        </mxCell>
        <mxCell id="uESx4mzOo0HxvKaBSaLz-198" value="home" style="text;html=1;strokeColor=none;fillColor=none;align=center;verticalAlign=middle;whiteSpace=wrap;rounded=0;fontSize=15;" parent="1" vertex="1">
          <mxGeometry x="738.13" y="638" width="60" height="30" as="geometry" />
        </mxCell>
        <mxCell id="uESx4mzOo0HxvKaBSaLz-199" value="(2, 2)" style="text;html=1;strokeColor=none;fillColor=none;align=center;verticalAlign=middle;whiteSpace=wrap;rounded=0;fontSize=15;" parent="1" vertex="1">
          <mxGeometry x="684.5" y="771" width="60" height="30" as="geometry" />
        </mxCell>
        <mxCell id="uESx4mzOo0HxvKaBSaLz-204" value="(2, 4)" style="text;html=1;strokeColor=none;fillColor=none;align=center;verticalAlign=middle;whiteSpace=wrap;rounded=0;fontSize=15;" parent="1" vertex="1">
          <mxGeometry x="867.25" y="928.75" width="60" height="30" as="geometry" />
        </mxCell>
        <mxCell id="uESx4mzOo0HxvKaBSaLz-205" value="(0, N)" style="text;html=1;strokeColor=none;fillColor=none;align=center;verticalAlign=middle;whiteSpace=wrap;rounded=0;fontSize=15;" parent="1" vertex="1">
          <mxGeometry x="873.25" y="608" width="60" height="30" as="geometry" />
        </mxCell>
        <mxCell id="uESx4mzOo0HxvKaBSaLz-206" value="(0, N)" style="text;html=1;strokeColor=none;fillColor=none;align=center;verticalAlign=middle;whiteSpace=wrap;rounded=0;fontSize=15;" parent="1" vertex="1">
          <mxGeometry x="684.5" y="603" width="60" height="30" as="geometry" />
        </mxCell>
        <mxCell id="uESx4mzOo0HxvKaBSaLz-207" value="(0, N)" style="text;html=1;strokeColor=none;fillColor=none;align=center;verticalAlign=middle;whiteSpace=wrap;rounded=0;fontSize=15;" parent="1" vertex="1">
          <mxGeometry x="346.25" y="678" width="60" height="30" as="geometry" />
        </mxCell>
        <mxCell id="uESx4mzOo0HxvKaBSaLz-209" value="(7, N)" style="text;html=1;strokeColor=none;fillColor=none;align=center;verticalAlign=middle;whiteSpace=wrap;rounded=0;fontSize=15;" parent="1" vertex="1">
          <mxGeometry x="268.25" y="608" width="60" height="30" as="geometry" />
        </mxCell>
        <mxCell id="uESx4mzOo0HxvKaBSaLz-210" value="(0, N)" style="text;html=1;strokeColor=none;fillColor=none;align=center;verticalAlign=middle;whiteSpace=wrap;rounded=0;fontSize=15;" parent="1" vertex="1">
          <mxGeometry x="624.25" y="167" width="60" height="30" as="geometry" />
        </mxCell>
        <mxCell id="uESx4mzOo0HxvKaBSaLz-211" value="(1, 1)" style="text;html=1;strokeColor=none;fillColor=none;align=center;verticalAlign=middle;whiteSpace=wrap;rounded=0;fontSize=15;" parent="1" vertex="1">
          <mxGeometry x="154.25" y="150" width="60" height="30" as="geometry" />
        </mxCell>
        <mxCell id="uESx4mzOo0HxvKaBSaLz-212" value="(1, 1)" style="text;html=1;strokeColor=none;fillColor=none;align=center;verticalAlign=middle;whiteSpace=wrap;rounded=0;fontSize=15;" parent="1" vertex="1">
          <mxGeometry x="1" y="827.5" width="60" height="30" as="geometry" />
        </mxCell>
        <mxCell id="uESx4mzOo0HxvKaBSaLz-213" value="(0, N)" style="text;html=1;strokeColor=none;fillColor=none;align=center;verticalAlign=middle;whiteSpace=wrap;rounded=0;fontSize=15;" parent="1" vertex="1">
          <mxGeometry x="122.25" y="673.5" width="60" height="30" as="geometry" />
        </mxCell>
        <mxCell id="uESx4mzOo0HxvKaBSaLz-216" value="&lt;font style=&quot;font-size: 12px&quot;&gt;main_position&lt;/font&gt;" style="text;html=1;strokeColor=none;fillColor=none;align=center;verticalAlign=middle;whiteSpace=wrap;rounded=0;fontSize=15;" parent="1" vertex="1">
          <mxGeometry x="299.25" y="572" width="60" height="30" as="geometry" />
        </mxCell>
        <mxCell id="uESx4mzOo0HxvKaBSaLz-223" style="rounded=0;orthogonalLoop=1;jettySize=auto;html=1;exitX=1;exitY=0;exitDx=0;exitDy=0;fontSize=16;startArrow=none;startFill=0;endArrow=oval;endFill=0;endSize=8;" parent="1" source="uESx4mzOo0HxvKaBSaLz-219" edge="1">
          <mxGeometry relative="1" as="geometry">
            <mxPoint x="487.25" y="760" as="targetPoint" />
          </mxGeometry>
        </mxCell>
        <mxCell id="uESx4mzOo0HxvKaBSaLz-219" value="" style="rhombus;whiteSpace=wrap;html=1;fontSize=12;fillColor=none;" parent="1" vertex="1">
          <mxGeometry x="374" y="750" width="108.5" height="80" as="geometry" />
        </mxCell>
        <mxCell id="uESx4mzOo0HxvKaBSaLz-220" value="&lt;font style=&quot;font-size: 16px&quot;&gt;Played&lt;/font&gt;" style="text;html=1;strokeColor=none;fillColor=none;align=center;verticalAlign=middle;whiteSpace=wrap;rounded=0;fontSize=12;" parent="1" vertex="1">
          <mxGeometry x="398.25" y="775" width="60" height="30" as="geometry" />
        </mxCell>
        <mxCell id="uESx4mzOo0HxvKaBSaLz-224" value="&lt;font style=&quot;font-size: 12px&quot;&gt;position&lt;/font&gt;" style="text;html=1;strokeColor=none;fillColor=none;align=center;verticalAlign=middle;whiteSpace=wrap;rounded=0;fontSize=16;" parent="1" vertex="1">
          <mxGeometry x="488.25" y="741" width="60" height="30" as="geometry" />
        </mxCell>
        <mxCell id="uESx4mzOo0HxvKaBSaLz-226" value="&lt;span style=&quot;font-size: 15px&quot;&gt;outside_reason&lt;/span&gt;" style="text;html=1;strokeColor=none;fillColor=none;align=center;verticalAlign=middle;whiteSpace=wrap;rounded=0;fontSize=21;" parent="1" vertex="1">
          <mxGeometry x="774.26" y="1046.75" width="60" height="30" as="geometry" />
        </mxCell>
        <mxCell id="uESx4mzOo0HxvKaBSaLz-227" value="(12, N)" style="text;html=1;strokeColor=none;fillColor=none;align=center;verticalAlign=middle;whiteSpace=wrap;rounded=0;fontSize=15;" parent="1" vertex="1">
          <mxGeometry x="368.25" y="835" width="60" height="30" as="geometry" />
        </mxCell>
        <mxCell id="uESx4mzOo0HxvKaBSaLz-229" value="(0, N)" style="text;html=1;strokeColor=none;fillColor=none;align=center;verticalAlign=middle;whiteSpace=wrap;rounded=0;fontSize=15;" parent="1" vertex="1">
          <mxGeometry x="428.25" y="592" width="60" height="30" as="geometry" />
        </mxCell>
        <mxCell id="uESx4mzOo0HxvKaBSaLz-143" value="" style="ellipse;whiteSpace=wrap;html=1;aspect=fixed;fontSize=15;fillColor=#000000;" parent="1" vertex="1">
          <mxGeometry x="100" y="826" width="6" height="6" as="geometry" />
        </mxCell>
        <mxCell id="mENr9t2x39c0aTWe1Q5v-30" style="edgeStyle=elbowEdgeStyle;rounded=0;orthogonalLoop=1;jettySize=auto;html=1;exitX=0.5;exitY=0;exitDx=0;exitDy=0;entryX=0;entryY=0.5;entryDx=0;entryDy=0;fontSize=17;endArrow=none;endFill=0;endSize=8;" parent="1" source="mENr9t2x39c0aTWe1Q5v-22" target="uESx4mzOo0HxvKaBSaLz-14" edge="1">
          <mxGeometry relative="1" as="geometry">
            <Array as="points">
              <mxPoint x="428" y="240" />
            </Array>
          </mxGeometry>
        </mxCell>
        <mxCell id="mENr9t2x39c0aTWe1Q5v-22" value="&lt;font style=&quot;font-size: 17px&quot;&gt;PlayersData&lt;/font&gt;" style="rhombus;whiteSpace=wrap;html=1;fillColor=none;" parent="1" vertex="1">
          <mxGeometry x="373.12" y="392" width="110.25" height="80" as="geometry" />
        </mxCell>
        <mxCell id="mENr9t2x39c0aTWe1Q5v-23" value="" style="edgeStyle=none;rounded=0;orthogonalLoop=1;jettySize=auto;html=1;endArrow=none;endFill=0;endSize=8;" parent="1" target="mENr9t2x39c0aTWe1Q5v-22" edge="1">
          <mxGeometry relative="1" as="geometry">
            <mxPoint x="428" y="520" as="sourcePoint" />
          </mxGeometry>
        </mxCell>
        <mxCell id="mENr9t2x39c0aTWe1Q5v-36" style="edgeStyle=elbowEdgeStyle;rounded=0;orthogonalLoop=1;jettySize=auto;html=1;exitX=0.5;exitY=0;exitDx=0;exitDy=0;entryX=0.5;entryY=1;entryDx=0;entryDy=0;fontSize=17;endArrow=none;endFill=0;endSize=9;" parent="1" source="mENr9t2x39c0aTWe1Q5v-24" target="uESx4mzOo0HxvKaBSaLz-14" edge="1">
          <mxGeometry relative="1" as="geometry" />
        </mxCell>
        <mxCell id="mENr9t2x39c0aTWe1Q5v-24" value="&lt;font style=&quot;font-size: 17px&quot;&gt;CoachesData&lt;/font&gt;" style="rhombus;whiteSpace=wrap;html=1;fillColor=none;" parent="1" vertex="1">
          <mxGeometry x="631.01" y="393" width="110.25" height="80" as="geometry" />
        </mxCell>
        <mxCell id="mENr9t2x39c0aTWe1Q5v-25" value="" style="edgeStyle=none;rounded=0;orthogonalLoop=1;jettySize=auto;html=1;endArrow=none;endFill=0;endSize=8;" parent="1" target="mENr9t2x39c0aTWe1Q5v-24" edge="1">
          <mxGeometry relative="1" as="geometry">
            <mxPoint x="685.8899999999998" y="520.9999999999998" as="sourcePoint" />
          </mxGeometry>
        </mxCell>
        <mxCell id="mENr9t2x39c0aTWe1Q5v-35" style="edgeStyle=elbowEdgeStyle;rounded=0;orthogonalLoop=1;jettySize=auto;html=1;exitX=0.5;exitY=0;exitDx=0;exitDy=0;entryX=1;entryY=0.5;entryDx=0;entryDy=0;fontSize=17;endArrow=oval;endFill=0;endSize=9;" parent="1" source="mENr9t2x39c0aTWe1Q5v-28" target="uESx4mzOo0HxvKaBSaLz-14" edge="1">
          <mxGeometry relative="1" as="geometry">
            <Array as="points">
              <mxPoint x="871" y="240" />
            </Array>
          </mxGeometry>
        </mxCell>
        <mxCell id="mENr9t2x39c0aTWe1Q5v-28" value="&lt;font style=&quot;font-size: 17px&quot;&gt;PlayersData&lt;/font&gt;" style="rhombus;whiteSpace=wrap;html=1;fillColor=none;" parent="1" vertex="1">
          <mxGeometry x="816.25" y="393" width="110.25" height="80" as="geometry" />
        </mxCell>
        <mxCell id="mENr9t2x39c0aTWe1Q5v-29" value="" style="edgeStyle=none;rounded=0;orthogonalLoop=1;jettySize=auto;html=1;endArrow=none;endFill=0;endSize=8;" parent="1" target="mENr9t2x39c0aTWe1Q5v-28" edge="1">
          <mxGeometry relative="1" as="geometry">
            <mxPoint x="871.1299999999998" y="520.9999999999998" as="sourcePoint" />
          </mxGeometry>
        </mxCell>
        <mxCell id="mENr9t2x39c0aTWe1Q5v-38" value="&lt;font style=&quot;font-size: 11px&quot;&gt;(0,1)&lt;/font&gt;" style="text;html=1;strokeColor=none;fillColor=none;align=center;verticalAlign=middle;whiteSpace=wrap;rounded=0;fontSize=17;" parent="1" vertex="1">
          <mxGeometry x="137.25" y="100" width="60" height="30" as="geometry" />
        </mxCell>
        <mxCell id="mENr9t2x39c0aTWe1Q5v-43" value="" style="endArrow=oval;html=1;rounded=0;fontSize=15;endSize=10;elbow=vertical;endFill=1;" parent="1" edge="1">
          <mxGeometry relative="1" as="geometry">
            <mxPoint x="462.25" y="493.5" as="sourcePoint" />
            <mxPoint x="374" y="493" as="targetPoint" />
          </mxGeometry>
        </mxCell>
        <mxCell id="mENr9t2x39c0aTWe1Q5v-44" value="" style="ellipse;whiteSpace=wrap;html=1;aspect=fixed;fontSize=15;fillColor=#000000;" parent="1" vertex="1">
          <mxGeometry x="425.75" y="490" width="6" height="6" as="geometry" />
        </mxCell>
        <mxCell id="mENr9t2x39c0aTWe1Q5v-45" value="" style="endArrow=oval;html=1;rounded=0;fontSize=15;endSize=10;elbow=vertical;endFill=1;" parent="1" edge="1">
          <mxGeometry relative="1" as="geometry">
            <mxPoint x="719.13" y="499.5" as="sourcePoint" />
            <mxPoint x="630.88" y="499" as="targetPoint" />
          </mxGeometry>
        </mxCell>
        <mxCell id="mENr9t2x39c0aTWe1Q5v-46" value="" style="ellipse;whiteSpace=wrap;html=1;aspect=fixed;fontSize=15;fillColor=#000000;" parent="1" vertex="1">
          <mxGeometry x="682.63" y="496" width="6" height="6" as="geometry" />
        </mxCell>
        <mxCell id="mENr9t2x39c0aTWe1Q5v-47" value="" style="endArrow=oval;html=1;rounded=0;fontSize=15;endSize=10;elbow=vertical;endFill=1;" parent="1" edge="1">
          <mxGeometry relative="1" as="geometry">
            <mxPoint x="905.7500000000001" y="500.5" as="sourcePoint" />
            <mxPoint x="817.4999999999999" y="500" as="targetPoint" />
          </mxGeometry>
        </mxCell>
        <mxCell id="mENr9t2x39c0aTWe1Q5v-48" value="" style="ellipse;whiteSpace=wrap;html=1;aspect=fixed;fontSize=15;fillColor=#000000;" parent="1" vertex="1">
          <mxGeometry x="869.25" y="497" width="6" height="6" as="geometry" />
        </mxCell>
        <mxCell id="mENr9t2x39c0aTWe1Q5v-49" value="(1, 1)" style="text;html=1;strokeColor=none;fillColor=none;align=center;verticalAlign=middle;whiteSpace=wrap;rounded=0;fontSize=15;" parent="1" vertex="1">
          <mxGeometry x="424.25" y="466" width="60" height="30" as="geometry" />
        </mxCell>
        <mxCell id="mENr9t2x39c0aTWe1Q5v-50" value="(1, 1)" style="text;html=1;strokeColor=none;fillColor=none;align=center;verticalAlign=middle;whiteSpace=wrap;rounded=0;fontSize=15;" parent="1" vertex="1">
          <mxGeometry x="681.26" y="467" width="60" height="30" as="geometry" />
        </mxCell>
        <mxCell id="mENr9t2x39c0aTWe1Q5v-51" value="(1, 1)" style="text;html=1;strokeColor=none;fillColor=none;align=center;verticalAlign=middle;whiteSpace=wrap;rounded=0;fontSize=15;" parent="1" vertex="1">
          <mxGeometry x="867.25" y="472" width="60" height="30" as="geometry" />
        </mxCell>
        <mxCell id="mENr9t2x39c0aTWe1Q5v-52" value="(0, N)" style="text;html=1;strokeColor=none;fillColor=none;align=center;verticalAlign=middle;whiteSpace=wrap;rounded=0;fontSize=15;" parent="1" vertex="1">
          <mxGeometry x="533.75" y="252" width="60" height="30" as="geometry" />
        </mxCell>
        <mxCell id="mENr9t2x39c0aTWe1Q5v-53" value="(0, N)" style="text;html=1;strokeColor=none;fillColor=none;align=center;verticalAlign=middle;whiteSpace=wrap;rounded=0;fontSize=15;" parent="1" vertex="1">
          <mxGeometry x="624.25" y="306" width="60" height="30" as="geometry" />
        </mxCell>
        <mxCell id="mENr9t2x39c0aTWe1Q5v-54" value="(0, N)" style="text;html=1;strokeColor=none;fillColor=none;align=center;verticalAlign=middle;whiteSpace=wrap;rounded=0;fontSize=15;" parent="1" vertex="1">
          <mxGeometry x="768.25" y="250" width="60" height="30" as="geometry" />
        </mxCell>
        <mxCell id="mENr9t2x39c0aTWe1Q5v-56" value="&lt;span style=&quot;font-size: 12px&quot;&gt;postponed_date&lt;/span&gt;" style="text;html=1;strokeColor=none;fillColor=none;align=center;verticalAlign=middle;whiteSpace=wrap;rounded=0;fontSize=21;" parent="1" vertex="1">
          <mxGeometry x="539.76" y="901.75" width="60" height="30" as="geometry" />
        </mxCell>
        <mxCell id="mENr9t2x39c0aTWe1Q5v-58" value="&lt;font style=&quot;font-size: 11px&quot;&gt;(0,1)&lt;/font&gt;" style="text;html=1;strokeColor=none;fillColor=none;align=center;verticalAlign=middle;whiteSpace=wrap;rounded=0;fontSize=17;" parent="1" vertex="1">
          <mxGeometry x="577.02" y="921.75" width="60" height="30" as="geometry" />
        </mxCell>
        <mxCell id="mENr9t2x39c0aTWe1Q5v-64" value="&lt;font style=&quot;font-size: 11px&quot;&gt;(0,1)&lt;/font&gt;" style="text;html=1;strokeColor=none;fillColor=none;align=center;verticalAlign=middle;whiteSpace=wrap;rounded=0;fontSize=17;" parent="1" vertex="1">
          <mxGeometry x="729.26" y="1026.25" width="60" height="30" as="geometry" />
        </mxCell>
        <mxCell id="RR57jl_ZyxM-nM3Gpm_I-2" value="" style="rhombus;whiteSpace=wrap;html=1;fontStyle=1;fillColor=none;startSize=0;aspect=fixed;" vertex="1" parent="1">
          <mxGeometry x="6" y="666.5" width="101" height="72.44" as="geometry" />
        </mxCell>
        <mxCell id="RR57jl_ZyxM-nM3Gpm_I-3" value="" style="swimlane;startSize=0;fillColor=#000000;aspect=fixed;" vertex="1" parent="1">
          <mxGeometry x="17" y="860.5" width="80" height="49.01" as="geometry" />
        </mxCell>
        <mxCell id="RR57jl_ZyxM-nM3Gpm_I-8" value="" style="swimlane;startSize=0;fillColor=#000000;" vertex="1" parent="1">
          <mxGeometry x="387.75" y="525" width="82" height="42" as="geometry" />
        </mxCell>
        <mxCell id="RR57jl_ZyxM-nM3Gpm_I-13" value="" style="rhombus;whiteSpace=wrap;html=1;fillColor=none;aspect=fixed;" vertex="1" parent="1">
          <mxGeometry x="368.25" y="388.62" width="119" height="86.38" as="geometry" />
        </mxCell>
        <mxCell id="RR57jl_ZyxM-nM3Gpm_I-14" value="" style="rhombus;whiteSpace=wrap;html=1;fillColor=none;aspect=fixed;" vertex="1" parent="1">
          <mxGeometry x="626.75" y="389.81" width="119" height="86.38" as="geometry" />
        </mxCell>
        <mxCell id="RR57jl_ZyxM-nM3Gpm_I-15" value="" style="rhombus;whiteSpace=wrap;html=1;fillColor=none;aspect=fixed;strokeColor=default;" vertex="1" parent="1">
          <mxGeometry x="811.5" y="389.62" width="119" height="86.38" as="geometry" />
        </mxCell>
      </root>
    </mxGraphModel>
  </diagram>
</mxfile>
